<svg width="2048" height="2048" version="1.1" viewBox="0 0 541.87 541.87" xmlns="http://www.w3.org/2000/svg">
 <rect x="1.4242e-5" y="1.4242e-5" width="541.87" height="541.87" style="fill:#f59563"/>
 <g style="fill:#fff;stroke-width:4.8613" aria-label="2048">
  <path d="m103.71 227.38q-6.2224 0-11.861 2.3334-5.4446 2.139-11.667 7.1946l-10.695-16.334q7.5836-6.2224 16.334-9.528 8.9447-3.5001 21.001-3.5001 9.3336 0 16.528 2.7223 7.3891 2.7223 12.445 7.5836t7.5836 11.473q2.7223 6.4168 2.7223 14.195 0 12.834-9.1392 27.029-9.1392 14-26.251 30.14l-12.25 11.473h49.001v20.028h-75.058l-4.6668-17.112 17.5-17.5q9.7225-9.7225 16.334-17.112 6.6113-7.5836 10.695-13.612t5.8335-11.084 1.75-10.111q0-8.9447-4.6668-13.612-4.4724-4.6668-11.473-4.6668z" style="stroke-width:4.8613"/>
  <path d="m213.38 207.54q10.889 0 20.028 3.6946 9.3336 3.5001 15.945 11.278 6.8058 7.5836 10.5 19.639 3.889 11.861 3.889 28.584 0 16.528-4.0834 28.584-4.0834 11.861-11.084 19.639t-16.139 11.667q-9.1392 3.6946-19.251 3.6946-10.889 0-20.223-3.5001-9.1392-3.6946-15.945-11.473t-10.695-19.834q-3.6946-12.056-3.6946-28.779 0-15.945 4.0834-27.806 4.2779-12.056 11.278-19.834t16.139-11.667q9.3336-3.889 19.251-3.889zm-24.112 63.196q0 13.028 1.9445 21.584t5.2502 13.612q3.5001 5.0557 7.778 7.1946 4.4724 1.9445 9.1392 1.9445t8.9447-2.139q4.4724-2.139 7.5836-7.1946 3.3056-5.0557 5.2502-13.612t1.9445-21.39q0-13.028-1.9445-21.39-1.9445-8.5558-5.2502-13.417-3.1112-5.0557-7.5836-7.0002-4.2779-2.139-8.9447-2.139t-9.1392 2.139q-4.2779 1.9445-7.778 7.0002-3.3056 5.0557-5.2502 13.612-1.9445 8.3614-1.9445 21.195z" style="stroke-width:4.8613"/>
  <path d="m325.96 209.68h29.945v74.28h17.889v20.028h-17.889v28.195h-24.695v-28.195h-56.779v-16.528zm-5.2502 44.529-19.834 29.751h30.334v-27.612l1.1667-23.528h-0.3889z" style="stroke-width:4.8613"/>
  <path d="m430.58 207.54q10.306 0 17.889 2.7223t12.639 7.1946 7.3891 10.111q2.5278 5.639 2.5278 11.667 0 9.7225-6.028 16.917-5.8335 7.0002-15.75 11.084 5.2502 1.75 9.7225 4.4724t7.778 6.4168q3.5001 3.6946 5.4446 8.5558 1.9445 4.6668 1.9445 10.5 0 8.5558-3.3056 15.362t-9.3336 11.667q-5.8335 4.8612-14.195 7.5836-8.1669 2.5278-18.278 2.5278-9.917 0-18.084-2.5278t-14-7.1946-8.9447-11.084-3.1112-14.195q0-6.028 1.75-10.695t4.8612-8.1669q3.3056-3.6946 7.5836-6.4168 4.4724-2.7223 9.7225-4.8612-8.5558-3.889-14.195-10.889-5.639-7.1946-5.639-16.528 0-6.4168 2.5278-12.445 2.7223-6.2224 7.9724-11.084t13.028-7.778 18.084-2.9168zm-16.723 32.668q0 7.1946 5.0557 11.861 5.0557 4.4724 12.056 6.6113 6.2224-2.3334 10.5-7.0002 4.4724-4.6668 4.4724-10.695 0-7.1946-4.4724-10.889-4.2779-3.889-11.667-3.889t-11.667 4.2779q-4.2779 4.0834-4.2779 9.7225zm14.389 39.084q-7.5836 2.5278-12.445 7.3891-4.8612 4.6668-4.8612 12.056t4.8612 12.056q5.0557 4.4724 14.195 4.4724 7.9724 0 13.028-4.8612 5.2502-5.0557 5.2502-11.861 0-7.3891-5.639-12.25t-14.389-7.0002z" style="stroke-width:4.8613"/>
 </g>
</svg>
